<svg version="1.1" xmlns="http://www.w3.org/2000/svg" xmlns:xlink="http://www.w3.org/1999/xlink" x="0px" y="0px"
	 width="8.97px" height="6.18px" viewBox="0 117.88 8.97 6.18" enable-background="new 0 117.88 8.97 6.18" xml:space="preserve">
<path fill="#B82B5C" d="M4.05,119.85H2.36L0,117.88h6.51c1.34,0.08,2.08,0.8,2.22,2.17c0.01,0.19,0.01,0.54,0,1.04
	c-0.04,0.78-0.43,1.37-1.14,1.78c0.04,0.04,0.5,0.43,1.39,1.18H7.28l-1.05-0.9H2.03v0.9h-1.1v-1.97h4.02l-0.94-0.81h1.68l0.95,0.81
	c0.66-0.18,1-0.57,1-1.16c0-0.22,0-0.49,0-0.8c-0.09-0.7-0.46-1.09-1.09-1.17c-0.05,0-1.25,0-3.58,0L4.05,119.85L4.05,119.85z"/>
</svg>