<?xml version="1.0" encoding="utf-8"?>
<!-- Generator: Adobe Illustrator 19.0.0, SVG Export Plug-In . SVG Version: 6.00 Build 0)  -->
<svg version="1.1" id="Layer_1" xmlns="http://www.w3.org/2000/svg" xmlns:xlink="http://www.w3.org/1999/xlink" x="0px" y="0px"
	 width="512px" height="490.67px" viewBox="251 -124.33 512 490.67" enable-background="new 251 -124.33 512 490.67"
	 xml:space="preserve">
<path fill="#B82B5C" d="M507-124.33c-141.44,0-256,112.64-256,251.56c0,111.17,73.34,205.44,175.04,238.68
	c12.8,2.37,17.49-5.42,17.49-12.1c0-5.97-0.21-21.8-0.32-42.77c-71.21,15.17-86.23-33.75-86.23-33.75
	c-11.65-29.03-28.48-36.8-28.48-36.8c-23.19-15.59,1.79-15.27,1.79-15.27c25.71,1.75,39.21,25.92,39.21,25.92
	c22.83,38.46,59.93,27.35,74.56,20.93c2.3-16.28,8.9-27.35,16.21-33.64c-56.85-6.29-116.61-27.93-116.61-124.31
	c0-27.46,9.92-49.9,26.35-67.5c-2.88-6.36-11.52-31.94,2.24-66.58c0,0,21.44-6.74,70.4,25.79c20.48-5.59,42.24-8.36,64-8.49
	c21.76,0.13,43.52,2.9,64,8.49c48.64-32.53,70.08-25.79,70.08-25.79c13.76,34.65,5.12,60.22,2.56,66.58
	c16.32,17.6,26.24,40.04,26.24,67.5c0,96.64-59.84,117.91-116.8,124.1c8.96,7.55,17.28,22.98,17.28,46.55
	c0,33.66-0.32,60.71-0.32,68.89c0,6.59,4.48,14.46,17.6,11.95C689.72,332.56,763,238.23,763,127.23
	C763-11.69,648.38-124.33,507-124.33z"/>
</svg>
